<?xml version="1.0" encoding="UTF-8"?>
<svg id="Calque_2" data-name="Calque 2" xmlns="http://www.w3.org/2000/svg" viewBox="0 0 1749.22 379.88">
  <defs>
    <style>
      .cls-1 {
        fill: #e61e29;
      }

      .cls-1, .cls-2 {
        fill-rule: evenodd;
      }

      .cls-3, .cls-2 {
        fill: #0074ad;
      }
    </style>
  </defs>
  <g id="Layer_1" data-name="Layer 1">
    <g>
      <path class="cls-2" d="M1156.26,138.77c18.17,0,32.9,14.73,32.9,32.9s-14.73,32.9-32.9,32.9-32.9-14.73-32.9-32.9,14.73-32.9,32.9-32.9h0ZM1599.75,259.6c1.67-55.18,90.32-60.22,141.71-29.1l-18.98,37.33c-17.7-12.3-33.02-18.04-52.51-16.45-18.49,1.51-20.49,21.64,9.49,20.88,46.81-1.19,72.08,23.42,69.59,55.04-4.01,51.06-84.44,71.96-155,27.2l25.94-37.96c19.61,11.27,39.16,21.33,58.84,18.98,20.42-2.44,30.72-18.91-5.69-22.78-49.6-5.26-74.36-21.09-73.39-53.14h0ZM1212.97,379.03v-157.24h57.24v22.06c22.21-36.84,108.57-37.39,108.58,20.15l.02,115.03h-57.08l-.63-79.06c-.25-31.62-11.75-34.59-27.25-32.84-12.86,1.45-24.38,6.12-24.38,32.84v79.06h-56.49ZM1126.53,218.97h59.47v160.06h-59.47v-160.06h0ZM836.55,379.03v-157.24h57.24v22.06c17.15-28.62,83.26-42.58,102.25,1.8,26.98-40.32,105.9-38.48,105.88,16.31l-.06,117.07h-60.68v-86.02c0-23.11-3.94-25.32-23.36-24.46-15.89.7-19.51,13.88-19.58,28.85l-.38,81.64h-57.08l-.63-79.06c-.25-31.62-7.19-34.31-22.73-32.84-15.39,1.45-22.12,3.59-22.12,32.84v79.06h-58.75ZM733.34,210.11c46.65,0,84.46,37.81,84.46,84.46s-37.81,84.46-84.46,84.46-84.46-37.81-84.46-84.46,37.81-84.46,84.46-84.46h0ZM733.34,264.52c16.6,0,30.05,13.45,30.05,30.05s-13.45,30.05-30.05,30.05-30.05-13.45-30.05-30.05,13.45-30.05,30.05-30.05h0ZM416.79,379.03v-222.65h66.2c21.01,0,38.99,1.14,53.84,3.43,14.85,2.28,27,5.81,36.28,10.59,19.73,10.12,34.8,23.57,45.35,40.28,10.5,16.72,15.75,35.77,15.75,57.15s-5.25,40.28-15.7,56.89c-10.45,16.61-25.57,30.06-45.41,40.28-9.6,4.88-21.85,8.46-36.65,10.69-14.8,2.23-34.69,3.32-59.52,3.32h-60.15ZM482.89,320.22v-105.02h27.04c8.58,0,15.92.54,21.99,1.62,6.07,1.08,11.03,2.74,14.82,4.99,8.06,4.78,14.21,11.12,18.53,19,4.29,7.88,6.43,16.87,6.43,26.96s-2.14,19-6.41,26.84c-4.27,7.84-10.44,14.18-18.55,19-3.92,2.3-8.93,3.99-14.97,5.04-6.04,1.05-14.17,1.57-24.31,1.57h-24.57ZM1479.01,210.11c46.64,0,84.46,37.81,84.46,84.46s-37.81,84.46-84.46,84.46-84.46-37.81-84.46-84.46,37.81-84.46,84.46-84.46h0ZM1479.01,264.52c16.6,0,30.05,13.45,30.05,30.05s-13.45,30.05-30.05,30.05-30.05-13.45-30.05-30.05,13.45-30.05,30.05-30.05h0ZM1581.09,139.13c13.02,0,24.21,7.79,29.19,18.95,3.83,8.6,4.13,19.56,1.81,28.7-3.57,14.08-15.45,27.85-40.47,40.91l-6.9-9.34c4.9-4.08,9.93-8.3,11.96-11.38,3.64-5.51-1.11-4.15-5.12-5.4-12.99-4.05-22.42-16.18-22.42-30.5,0-17.64,14.3-31.95,31.95-31.95h0Z"/>
      <path class="cls-3" d="M990.64,372.26c.64,0,1.26.16,1.87.49.61.33,1.08.8,1.42,1.41.34.61.51,1.25.51,1.91s-.17,1.29-.5,1.89c-.33.61-.81,1.08-1.41,1.41-.6.34-1.24.5-1.9.5s-1.29-.17-1.9-.5c-.61-.33-1.08-.8-1.41-1.41-.34-.6-.51-1.24-.51-1.89s.17-1.3.51-1.91c.34-.61.82-1.08,1.43-1.41.61-.33,1.23-.49,1.87-.49h0ZM990.64,372.89c-.54,0-1.06.14-1.56.41-.51.27-.9.67-1.19,1.18-.29.51-.43,1.04-.43,1.59s.14,1.07.42,1.58c.28.5.67.9,1.18,1.18.51.28,1.03.42,1.58.42s1.08-.14,1.58-.42c.51-.28.9-.67,1.18-1.18.28-.5.42-1.03.42-1.58s-.14-1.08-.43-1.59c-.28-.51-.68-.9-1.19-1.18-.51-.27-1.03-.41-1.56-.41h0ZM988.97,378.17v-4.1h1.41c.48,0,.83.04,1.05.11.22.08.39.21.52.4.13.19.19.39.19.6,0,.3-.11.56-.32.78-.21.22-.5.35-.85.37.14.06.26.13.35.22.17.16.37.43.61.81l.5.8h-.81l-.36-.65c-.29-.51-.52-.83-.69-.95-.12-.09-.3-.14-.53-.14h-.39v1.74h-.66ZM989.63,375.87h.8c.38,0,.64-.06.78-.17.14-.11.21-.27.21-.46,0-.12-.03-.23-.1-.33-.07-.09-.16-.17-.28-.21-.12-.05-.34-.07-.67-.07h-.75v1.24h0Z"/>
      <path class="cls-1" d="M128.41,119.57L244.75,3.63c4.87-4.85,12.82-4.83,17.66.03l109.77,110.15c4.85,4.87,4.84,12.81-.03,17.66l-116.35,115.94-127.4-127.85h0ZM232.66,98.99c12.22-12.17,31.99-12.14,44.16.08,12.17,12.22,12.14,31.99-.08,44.16-12.22,12.17-31.99,12.14-44.16-.08-12.17-12.22-12.14-31.99.08-44.16h0Z"/>
      <path class="cls-2" d="M144.77,231.99c12.22-12.17,31.99-12.14,44.16.08,12.17,12.22,12.14,31.99-.08,44.16-12.21,12.17-31.99,12.14-44.16-.08-12.17-12.21-12.14-31.99.08-44.16h0ZM53.36,232.27c12.22-12.17,31.99-12.14,44.16.08,12.17,12.22,12.14,31.99-.08,44.16-12.21,12.17-31.99,12.14-44.16-.08-12.17-12.21-12.14-31.99.08-44.16h0ZM3.66,243.88l116.35-115.94,127.4,127.85-116.35,115.94c-4.87,4.85-12.81,4.83-17.66-.03L3.63,261.55c-4.85-4.87-4.84-12.81.03-17.66h0Z"/>
      <path class="cls-3" d="M171.5,375.92v-15.6h-5.94v-2.72h14.97v2.72h-5.98v15.6h-3.05ZM182.59,375.92v-18.33h4.5l4.63,14.64,4.47-14.64h4.41v18.33h-2.79v-15.38l-4.72,15.38h-2.76l-4.93-15.6v15.6h-2.81Z"/>
    </g>
  </g>
</svg>