<?xml version="1.0" encoding="utf-8"?>
<!-- Generator: Adobe Illustrator 16.0.4, SVG Export Plug-In . SVG Version: 6.00 Build 0)  -->
<!DOCTYPE svg PUBLIC "-//W3C//DTD SVG 1.1//EN" "http://www.w3.org/Graphics/SVG/1.1/DTD/svg11.dtd">
<svg version="1.1" id="Layer_1" xmlns="http://www.w3.org/2000/svg" xmlns:xlink="http://www.w3.org/1999/xlink" x="0px" y="0px"
	 width="233.333px" height="92px" viewBox="0 -10 233.333 92" enable-background="new 0 -10 233.333 92" xml:space="preserve">
<g>
	<path fill="#010202" d="M1.522,13.326h2.76v2.852c1.658-2.022,4.234-3.312,7.134-3.312c4.97,0,8.974,4.004,8.974,8.975v14.496
		h-2.762V22.299c0-3.682-2.991-6.672-6.673-6.672c-3.589,0-6.673,2.99-6.673,6.672v14.037H1.52L1.522,13.326L1.522,13.326z"/>
	<path fill="#010202" d="M36.082,24.877l8.284,11.459h-3.359l-6.581-9.158l-6.581,9.158h-3.359l8.238-11.459L24.44,13.326h3.358
		l6.627,9.205l6.627-9.205h3.359L36.082,24.877z"/>
</g>
<g>
	<path fill="#010202" d="M73.037,13.326h2.761v4.418c1.749-3.59,5.062-4.879,8.514-4.879v2.762c-5.937,0-8.514,3.959-8.514,8.791
		v11.918h-2.761V13.326z"/>
	<path fill="#010202" d="M95.907,36.797c-6.073,0-10.491-5.338-10.491-11.965s4.418-11.967,10.491-11.967
		c6.076,0,10.494,5.34,10.494,11.967v1.242H88.223c0.506,4.51,3.727,7.961,7.684,7.961c2.578,0,4.787-0.828,6.766-3.406l2.163,1.658
		C102.764,35.186,99.543,36.797,95.907,36.797z M88.223,23.588h15.324c-0.46-4.463-3.451-7.961-7.641-7.961
		C91.719,15.627,88.682,19.125,88.223,23.588z"/>
</g>
<g>
	<path fill="#010202" d="M125.167,17.152l-5.766,19.184h-3.002l-7.268-24.223h3.004l5.766,19.232l5.766-19.232h3.004l5.767,19.232
		l5.767-19.232h3.004l-7.269,24.223h-3.004L125.167,17.152z"/>
	<path fill="#010202" d="M160.385,33.09c-1.555,2.229-4.41,3.73-7.607,3.73c-5.184,0-9.35-3.488-9.35-7.799
		c0-4.168,4.506-7.51,10.025-7.51h6.932v-1.309c0-3.148-2.375-5.668-7.025-5.668c-2.375,0-4.506,0.484-6.541,1.986l-1.26-2.664
		c1.986-1.26,4.748-2.23,7.801-2.23c6.25,0,9.932,3.828,9.932,8.576v16.131h-2.906V33.09L160.385,33.09z M160.385,24.08h-6.932
		c-3.925,0-7.121,2.229-7.121,4.941c0,2.711,2.905,4.893,6.442,4.893c4.216,0,7.604-2.18,7.604-4.893V24.08H160.385z"/>
</g>
<g>
	<path fill="#010202" d="M170.407,12.113h2.908v4.65c1.84-3.779,5.328-5.137,8.963-5.137v2.908c-6.25,0-8.963,4.166-8.963,9.252
		v12.547h-2.908V12.113z"/>
	<path fill="#010202" d="M205.725,36.336h-2.908v-4.457c-1.986,3.002-5.086,4.941-8.574,4.941c-5.959,0-10.803-5.621-10.803-12.598
		s4.844-12.596,10.803-12.596c3.488,0,6.588,1.938,8.574,4.941V0h2.908V36.336z M202.961,24.225c0-5.328-3.926-9.689-8.724-9.689
		c-4.354,0-7.896,4.361-7.896,9.689c0,5.328,3.537,9.689,7.896,9.689C199.038,33.914,202.961,29.553,202.961,24.225z"/>
</g>
<g>
	<path fill="#010202" d="M221.122,14.535c-4.166,0-6.299,1.744-6.299,3.924c0,6.057,16.186,1.793,16.186,11.145
		c0,3.973-3.729,7.216-9.887,7.216c-6.149,0-9.883-3.243-9.883-7.216h2.906c0,2.471,2.955,4.311,6.977,4.311
		c4.023,0,6.979-1.84,6.979-4.311c0-6.541-16.185-1.842-16.185-11.145c0-3.779,3.148-6.83,9.205-6.83c6.06,0,9.205,3.051,9.205,6.83
		h-2.904C227.42,16.279,225.288,14.535,221.122,14.535z"/>
</g>
<rect x="59.247" y="4.014" fill="#010202" width="1.416" height="37.972"/>
<g>
	<path fill="#010202" d="M40.971,53.824h0.872v4.969c0.597-0.9,1.524-1.482,2.571-1.482c1.787,0,3.238,1.687,3.238,3.777
		c0,2.092-1.453,3.777-3.238,3.777c-1.047,0-1.977-0.582-2.571-1.482v1.336h-0.872V53.824z M46.782,61.088
		c0-1.598-1.062-2.906-2.368-2.906c-1.438,0-2.615,1.31-2.615,2.906c0,1.598,1.177,2.904,2.615,2.904
		C45.721,63.992,46.782,62.686,46.782,61.088z"/>
	<path fill="#010202" d="M49.436,66.898c0,0,0.93,0,1.293-0.888l0.508-1.276l-2.948-7.279h0.944l2.483,6.117l2.483-6.117h0.945
		l-3.56,8.76c-0.625,1.541-2.149,1.559-2.149,1.559L49.436,66.898L49.436,66.898z"/>
</g>
<path fill="#0E6EB6" d="M81.703,56.303h1.589c0.997,0,2.046,0.229,2.947,0.67v-0.805c0-0.574-1.096-1.861-3.756-1.861
	c-1.264,0-2.365,0.111-3.303,0.603c-0.248,0.133-0.701-0.229-1.008-0.812c-0.309-0.578-0.341-1.156-0.093-1.289
	c1.469-0.771,3.059-0.873,4.401-0.873c2.824,0,6.127,1.441,6.127,4.232v4.164v0.561c0,2.502-2.516,4.029-4.91,4.029h-2.402
	c-2.396,0-4.912-1.525-4.912-4.029v-0.561C76.384,57.738,79.208,56.303,81.703,56.303L81.703,56.303z M81.703,58.672
	c-2.07,0-2.946,1.111-2.946,1.66v0.561c0,0.64,0.82,1.66,2.54,1.66h2.401c1.721-0.002,2.541-1.021,2.541-1.66v-0.561
	c0-0.549-0.877-1.66-2.947-1.66H81.703L81.703,58.672z M102.702,60.076c0,1.043,1.304,2.453,3.723,2.451
	c2.42,0,3.725-1.408,3.725-2.451V56.77c0-1.043-1.305-2.453-3.725-2.453c-2.419,0-3.723,1.41-3.723,2.453V60.076L102.702,60.076z
	 M112.542,60.076c0,2.98-3.091,4.846-6.117,4.846c-3.026,0-6.118-1.865-6.118-4.846V56.77c0-2.979,3.092-4.85,6.117-4.85
	c3.027,0,6.118,1.865,6.118,4.85V60.076L112.542,60.076z M132.86,56.301h1.588c0.996,0,2.047,0.229,2.947,0.672v-0.805
	c0-0.574-1.094-1.861-3.756-1.861c-1.264,0-2.365,0.109-3.303,0.603c-0.246,0.133-0.699-0.229-1.01-0.812
	c-0.308-0.578-0.341-1.158-0.093-1.289c1.472-0.771,3.06-0.873,4.402-0.873c2.823,0,6.129,1.439,6.129,4.232v4.164v0.559
	c0,2.504-2.521,4.031-4.912,4.031h-2.401c-2.396,0-4.91-1.527-4.91-4.029v-0.561C127.542,57.738,130.364,56.301,132.86,56.301
	L132.86,56.301z M132.86,58.672c-2.07,0-2.947,1.111-2.947,1.66v0.559c0,0.642,0.82,1.66,2.541,1.66h2.4
	c1.721,0,2.541-1.021,2.541-1.66v-0.559c0-0.549-0.877-1.66-2.947-1.66H132.86L132.86,58.672z M116.417,63.68v0.688
	c0,0.28-0.536,0.508-1.196,0.508c-0.662,0-1.197-0.228-1.197-0.508V63.68v-3.16v-3.75c0-2.979,3.09-4.846,6.119-4.846
	c3.023,0,6.117,1.863,6.117,4.844l0.008,3.752l0.004,3.156l-0.004,0.115v0.576c0,0.279-0.529,0.506-1.188,0.508
	c-0.674,0-1.207-0.227-1.207-0.508v-2.885l-0.011-4.713c0-1.041-1.305-2.453-3.725-2.453c-2.421,0-3.724,1.41-3.724,2.453
	L116.417,63.68L116.417,63.68z M65.26,63.68v0.688c0,0.28-0.535,0.51-1.197,0.51c-0.66,0-1.197-0.229-1.197-0.51V63.68v-3.16v-3.75
	c0-2.979,3.092-4.846,6.117-4.846c3.027,0,6.119,1.863,6.119,4.846l0.008,3.75l0.004,3.158l-0.004,0.115v0.574
	c0,0.279-0.529,0.506-1.186,0.51c-0.672,0-1.208-0.229-1.208-0.51v-2.883l-0.009-4.715c0-1.041-1.305-2.453-3.725-2.453
	c-2.418,0-3.724,1.41-3.724,2.453L65.26,63.68L65.26,63.68z M96.432,56.281v-3.16v-0.533c0-0.279,0.533-0.506,1.192-0.508
	c0.666,0,1.202,0.229,1.202,0.508v0.533v3.16v7.398v0.688c0,0.279-0.536,0.508-1.197,0.508s-1.197-0.229-1.197-0.508V63.68v-3.162
	V56.281L96.432,56.281z M96.432,48.102V47.62v-0.465c0-0.281,0.536-0.509,1.197-0.509s1.197,0.228,1.197,0.509v0.465v0.481v0.467
	c0,0.281-0.536,0.509-1.197,0.509s-1.197-0.228-1.197-0.509V48.102L96.432,48.102z M90.358,51.002v-3.16v-0.688
	c0-0.279,0.533-0.508,1.192-0.508c0.666,0,1.201,0.227,1.201,0.508v0.688v3.16v1.154h1.503h0.689c0.279,0,0.506,0.533,0.508,1.191
	c0,0.666-0.227,1.198-0.508,1.198h-0.689h-1.503l0.001,9.134v0.688c0,0.279-0.536,0.508-1.197,0.508
	c-0.66,0-1.197-0.229-1.197-0.508V63.68v-1.248V51.002L90.358,51.002z M141.516,51.002v-3.16v-0.689
	c0-0.278,0.533-0.506,1.189-0.508c0.666,0,1.201,0.229,1.201,0.508v0.689V63.68v0.688c0,0.28-0.535,0.508-1.193,0.508
	c-0.66,0-1.197-0.228-1.197-0.508V63.68v-1.248V51.002L141.516,51.002z"/>
<path fill="#E73138" d="M158.555,55.869c-0.535-0.766-1.668-1.457-3.371-1.457c-2.42,0-3.727,1.41-3.727,2.453v1.604l7.233-2.396
	L158.555,55.869L158.555,55.869z M149.065,60.205c-0.006-0.072-0.008-0.156-0.002-0.229l0.002-3.111c0-2.98,3.09-4.846,6.117-4.846
	c3.025,0,6.117,1.86,6.117,4.846c0,0.359-0.328,0.973-0.818,1.135l-8.811,2.918l0.141,0.201c0.535,0.768,1.668,1.459,3.371,1.459
	c1.859,0,3.299-0.943,3.873-2l0.25-0.453c0.131-0.248,0.709-0.197,1.287,0.109c0.578,0.305,0.93,0.77,0.799,1.018l-0.189,0.377
	c-1.092,2.021-3.399,3.342-6.02,3.342C152.186,64.971,149.122,63.135,149.065,60.205L149.065,60.205z M196.596,60.203
	c-0.006-0.07-0.006-0.156-0.002-0.227v-3.113c0-2.98,3.092-4.846,6.117-4.846c3.022,0,6.115,1.862,6.115,4.846
	c0,0.361-0.324,0.975-0.814,1.135l-8.812,2.92l0.143,0.201c0.533,0.768,1.669,1.457,3.369,1.457c1.861,0,3.302-0.941,3.873-1.998
	l0.25-0.453c0.133-0.248,0.711-0.199,1.287,0.107c0.578,0.309,0.933,0.77,0.799,1.018l-0.188,0.377
	c-1.092,2.021-3.406,3.344-6.021,3.344C199.715,64.971,196.651,63.135,196.596,60.203L196.596,60.203z M206.081,55.869
	c-0.531-0.768-1.668-1.457-3.367-1.457c-2.42,0-3.727,1.41-3.727,2.451v1.604l7.234-2.396L206.081,55.869L206.081,55.869z
	 M178.469,60.102c0,1.043,1.305,2.453,3.723,2.453c2.42,0,3.725-1.41,3.725-2.453V56.84c0-1.041-1.305-2.451-3.725-2.451
	c-2.418,0-3.723,1.41-3.723,2.451v0.475v0.688V60.102L178.469,60.102z M188.311,60.102c0,2.98-3.092,4.847-6.119,4.847
	c-1.314,0-2.643-0.353-3.723-0.996v5.078v0.688c0,0.281-0.535,0.513-1.197,0.513c-0.66,0-1.195-0.23-1.195-0.513V69.03v-1.248
	l-0.002-6.619v-1.062V58v-0.688v-0.476c0-2.979,3.092-4.846,6.117-4.846c3.027,0,6.119,1.864,6.119,4.846V60.102L188.311,60.102z
	 M195.975,54.555c-2.66,0.01-3.74,1.297-3.74,1.871v0.113v3.863v3.348v0.689c0,0.28-0.535,0.508-1.195,0.508
	s-1.195-0.228-1.195-0.508V63.75v-3.16v-0.188v-3.863v-0.113v-3.047v-0.688c0-0.281,0.531-0.508,1.189-0.508
	c0.666,0,1.201,0.227,1.201,0.508v0.535c1.111-0.775,2.479-1.033,3.74-1.033c0.281-0.01,0.508,0.52,0.508,1.176
	C196.481,54.023,196.256,54.555,195.975,54.555L195.975,54.555z M219.153,52.869c0.33,0.146,0.328,0.656,0.1,1.199
	c-0.229,0.543-0.61,0.895-0.846,0.801c-1.045-0.492-1.881-0.664-3.029-0.664c-1.504,0-2.52,0.338-2.52,1.32
	c0,0.479,0.201,0.781,0.67,1.039c0.232,0.129,0.531,0.248,0.902,0.377s0.818,0.27,1.354,0.438c2.607,0.859,4.385,1.731,4.385,3.822
	c0,2.034-1.867,3.768-5.309,3.768c-1.387,0-3.217-0.454-4.549-1.247l-0.498-0.273c-0.211-0.119-0.158-0.619,0.117-1.117
	c0.277-0.498,0.674-0.809,0.885-0.689l0.342,0.189c1.105,0.602,2.291,1.008,3.533,1.008c1.383,0,2.979-0.393,2.979-1.574
	c0-0.914-0.848-1.242-3.729-2.229c-2.392-0.826-3.61-1.896-3.61-3.623c0-2.06,2.062-3.394,4.819-3.394
	C217.024,52.02,217.961,52.303,219.153,52.869L219.153,52.869z M230.319,52.869c0.33,0.146,0.328,0.656,0.098,1.199
	c-0.229,0.543-0.608,0.895-0.844,0.801c-1.045-0.492-1.881-0.664-3.031-0.664c-1.502,0-2.518,0.338-2.518,1.32
	c0,0.479,0.201,0.781,0.67,1.039c0.232,0.127,0.529,0.246,0.902,0.377c0.371,0.129,0.818,0.27,1.354,0.438
	c2.607,0.859,4.383,1.731,4.383,3.822c0,2.034-1.865,3.768-5.307,3.768c-1.387,0-3.217-0.454-4.549-1.247l-0.498-0.275
	c-0.211-0.117-0.16-0.615,0.117-1.115c0.277-0.498,0.672-0.809,0.885-0.689l0.342,0.189c1.105,0.602,2.291,1.008,3.533,1.008
	c1.383,0,2.977-0.393,2.977-1.574c0-0.914-0.846-1.242-3.729-2.229c-2.393-0.826-3.611-1.896-3.611-3.625
	c0-2.058,2.062-3.392,4.818-3.392C228.19,52.02,229.127,52.303,230.319,52.869L230.319,52.869z M173.141,52.184
	c0.199-0.197,0.732,0.021,1.203,0.482c0.471,0.473,0.688,1.012,0.488,1.209l-4.562,4.562l4.746,4.744
	c0.198,0.196-0.021,0.735-0.488,1.207c-0.467,0.467-1.006,0.686-1.204,0.483l-4.744-4.746l-4.746,4.746
	c-0.197,0.196-0.736-0.021-1.203-0.483c-0.471-0.472-0.689-1.011-0.488-1.205l4.746-4.746l-4.562-4.562
	c-0.195-0.197,0.021-0.736,0.49-1.209c0.467-0.465,1.004-0.68,1.201-0.482l4.562,4.562L173.141,52.184L173.141,52.184z"/>
</svg>
