<?xml version="1.0" encoding="utf-8"?>
<!-- Generator: Adobe Illustrator 19.2.1, SVG Export Plug-In . SVG Version: 6.00 Build 0)  -->
<svg version="1.1" id="layer" xmlns="http://www.w3.org/2000/svg" xmlns:xlink="http://www.w3.org/1999/xlink" x="0px" y="0px"
	 viewBox="0 0 652 652" style="enable-background:new 0 0 652 652;" xml:space="preserve">
<style type="text/css">
	.st0{fill:#AFCA0B;}
</style>
<path class="st0" d="M95.5,307.3H72.9c-0.2,0.5-12.2,30.6-12.2,30.6s-12-29.9-12.2-30.6H26.6c0.7,1.2,24.7,51,24.9,51.7h19.3
	C71.2,358.6,95,308.7,95.5,307.3z M301.7,311.8c-4.7-3.5-10.8-5.4-17.2-5.4c-8.5,0-13.6,2.4-15.5,3.3c-1.4,0.7-3.3,2.1-4.5,2.8
	l-0.7,0.5v-22.3h-19.1v68.2h19.1v-4.7l0.9,0.7c3.3,2.1,8.7,5.4,17.9,5.4c8.7,0,19.8-3.3,25.2-12.9c3.1-5.2,3.3-11.3,3.3-13.9v-0.2
	C311.1,324,307.9,316.5,301.7,311.8z M281.7,345.7c-1.6,0.5-3.3,0.7-4.9,0.7c-6.8,0-12.5-5.2-12.7-12.5c0-4.5,2.1-10.1,7.3-12
	c1.6-0.5,3.3-0.9,4.9-0.9h0.9c1.6,0,2.8,0.2,3.5,0.5c3.5,1.2,8.9,4,9.2,11.8C290.2,341.7,284.6,344.7,281.7,345.7z M232.6,342.4
	c-0.2-0.5-0.2-1.4-0.2-2.1v-20.5h7.3v-13.6h-7.3v-13.9h-19.1v13.9h-6.4v13.6h6.4l-0.9,27.5c0,4,0.5,6.1,1.9,7.8
	c2.1,2.6,5.6,3.3,7.1,3.5c2.1,0.2,4.5,0.5,7.3,0.5h12v-13.9h-2.4C235.4,345.2,233.3,344.7,232.6,342.4z M360.1,312.7v0.9l-1.6-1.2
	c-3.5-2.8-7.8-6.1-17.4-6.1c-13.6,0-20.5,7.3-23.3,11.8c-4,6.1-4.5,12.9-4.5,15.5c0,4.7,1.2,9.2,3.3,13.2c2.1,4,5.6,7.3,5.9,7.3
	c2.8,2.4,8.9,5.9,18.1,5.9c8,0,13.2-2.8,14.8-3.8c1.2-0.5,3.8-2.4,3.8-2.4l0.7-0.7v5.9h21.4v-51.7h-21.4v5.4H360.1z M360.3,333
	c0,9.9-7.8,12.2-8.5,12.5c-1.6,0.5-3.3,0.7-4.9,0.7c-7.3,0-12.9-5.6-13.2-12.9c0-4.5,1.9-10.3,7.5-12.5c1.6-0.5,3.3-0.9,4.9-0.9
	c2.6-0.2,4,0.2,4.7,0.5c2.8,0.9,9.2,3.8,9.4,12.2L360.3,333L360.3,333z M195.7,306.1c-6.4,0.5-11.1,3.1-14.1,7.8l-0.9,1.4v-8h-19.1
	v51.7h18.8v-24.7c0-3.3,1.2-14.1,16.2-14.6h5.6v-13.6H195.7z M429.5,332c0,5.4-1.6,8.5-2.8,9.9c-3.1,3.8-9.4,3.8-10.1,3.8
	c-2.4,0-10.1-0.5-12-7.3c-0.5-1.4-0.5-3.1-0.5-4v-27h-18.6v31.5c0,2.8,0.2,4.7,0.5,5.9c0.7,3.1,1.9,5.2,2.6,6.4
	c3.8,6.1,10.3,9.2,19.5,9.2c8.9,0,13.9-2.6,17.6-5.2c1.4-0.9,2.4-1.9,3.5-2.8l0.9-0.9v7.5h19.3v-51.5h-20V332z M499.1,313.9
	l-1.6-1.2c-3.5-2.8-7.8-6.1-17.4-6.1c-13.6,0-20.5,7.3-23.3,11.8c-4,6.1-4.5,12.9-4.5,15.5c0,4.7,1.2,9.2,3.3,13.2
	c2.1,4.2,4.7,6.4,5.9,7.3c2.8,2.4,8.9,5.9,18.1,5.9c8,0,13.2-2.8,14.8-3.8c1.2-0.5,1.9-1.2,3.8-2.4l0.7-0.5v5.4h20.7v-68.2h-20.7v23
	H499.1z M490.6,345.9c-1.6,0.5-3.3,0.7-4.9,0.7c-7.3,0-12.9-5.6-13.2-12.9c0-4.5,1.9-10.3,7.5-12.5c1.6-0.7,3.3-0.9,4.9-0.9
	c2.6-0.2,4,0.2,4.7,0.5c2.8,0.9,9.2,3.8,9.4,12.2C499.3,343.5,491.5,345.7,490.6,345.9L490.6,345.9z M626.5,345.2h-2.4
	c-3.1,0-5.2-0.5-5.9-2.8c-0.2-0.5-0.2-1.4-0.2-2.1v-20.5h7.1v-13.6h-7.3v-13.9h-19.1v13.9h-6.4v13.6h6.4l-0.5,27.5
	c0,4,0.5,6.1,1.9,7.8c2.1,2.6,5.6,3.3,7.1,3.5c2.1,0.2,4.2,0.5,6.8,0.5h12.5V345.2L626.5,345.2z M593.2,327.3
	c-1.4-5.2-4.2-8.7-6.1-10.8c-6.6-7.3-16.2-11.3-27.3-11.3c-14.6,0-21.4,3.1-27,7.5c-0.9,0.9-2.8,2.6-4.9,5.2
	c-4.2,5.4-5.2,11.3-5.2,15.3c0,6.1,1.6,11.3,5.4,15.8c6.4,7.8,16.7,11.5,30.8,11.5c3.5,0,12.9-0.5,21.9-4.7c2.4-1.2,4.2-2.6,4.9-3.1
	c3.5-2.8,5.9-6.4,7.5-9.2h-20.5l-2.1,1.9c-0.9,0.7-5.4,3.1-11.5,3.1c-1.2,0-11.8-0.2-15.5-8c-0.5-1.2-0.9-2.4-1.2-3.5v-0.5h51.7
	C594.1,333.2,594.1,330.4,593.2,327.3L593.2,327.3z M543.8,327.5c2.1-9.9,14.8-9.2,14.8-9.2c9.4-0.2,13.6,5.6,14.8,9.2H543.8z
	 M152.4,317c-6.6-7.3-16.2-11.3-27.3-11.3h-0.7c-13.9,0-20.5,3.1-26.1,7.5c-0.9,0.9-2.8,2.6-4.9,5.2c-4,5.2-4.9,11.1-5.2,15.1v0.9
	c0,6.1,1.9,11.1,5.2,15.3c6.4,7.8,16.5,11.5,30.6,11.5h0.5c3.8,0,12.9-0.5,21.6-4.7c2.4-1.2,4.2-2.6,4.9-3.1
	c2.8-2.1,5.4-5.4,7.5-9.2H138l-2.1,1.9c-0.9,0.7-5.2,3.1-11.3,3.1h-0.2c-1.2,0-11.8-0.2-15.5-8c-0.5-1.2-0.9-2.4-1.2-3.5v-0.5h51.7
	c0-3.1-0.2-5.9-0.9-8.9C156.9,321.9,153.6,318.1,152.4,317z M108.6,328.7v-0.5c1.9-9.2,12.9-9.6,15.1-9.6h0.7
	c8.5,0,13.2,4.9,14.8,9.4l0.2,0.7H108.6z"/>
</svg>
